#!OML:ASF E:\acrobat2\Project_11_07_03\Capture day 1\Session 1\Acrobat.ASF
:FULLY-SPECIFIED
:DEGREES
717
root 7.44451 10.2161 13.5927 -28.7841 1.08607 -2.38552
lowerback 21.7879 -1.73837 0.230354
upperback 9.08223 -2.25844 -0.720535
thorax -2.3129 -1.11147 -0.377182
lowerneck -8.71509 -0.691091 -0.310051
upperneck 4.39663 -1.03183 2.19475
head 2.95307 -0.433977 0.712854
rclavicle 2.62287e-014 -1.23246e-014
rhumerus 47.4651 11.9923 -16.5906
rradius 56.0417
rwrist 3.8419
rhand -17.9169 -27.2044
rfingers 7.12502
rthumb 8.35056 -57.0193
lclavicle 2.62287e-014 -1.23246e-014
lhumerus 68.7276 -3.96309 10.7855
lradius 35.9778
lwrist -2.00402
lhand -32.9366 -26.5399
lfingers 7.12502
lthumb -6.153 3.35073
rfemur -76.4958 -9.71373 19.2922
rtibia 65.4655
rfoot -190.757 3.11938
rtoes -7.11184
lfemur -41.8441 6.92881 -17.1056
ltibia 45.6377
lfoot -161.132 -1.08098
ltoes 33.9876
718
root 7.45368 10.2563 13.6873 -29.2549 0.672217 -1.66103
lowerback 21.8332 -1.60228 -0.139362
upperback 9.22747 -2.16366 -0.870163
thorax -2.16997 -1.07164 -0.35049
lowerneck -8.62421 -0.607613 -0.305014
upperneck 4.56826 -0.916041 2.07771
head 2.9917 -0.380282 0.680498
rclavicle -9.53545e-016 -1.47101e-014
rhumerus 46.6635 11.7928 -17.0519
rradius 54.7999
rwrist 2.48117
rhand -18.1157 -27.6119
rfingers 7.12502
rthumb 8.1587 -57.4343
lclavicle -9.53545e-016 -1.47101e-014
lhumerus 67.7599 -3.58352 11.3171
lradius 34.144
lwrist -2.27818
lhand -31.9048 -24.5356
lfingers 7.12502
lthumb -5.15685 5.38169
rfemur -75.5571 -9.87778 19.2138
rtibia 62.7548
rfoot -190.465 3.01415
rtoes -5.88444
lfemur -43.0151 7.48114 -16.9961
ltibia 45.6926
lfoot -163.088 0.315803
ltoes 32.0176
719
root 7.46287 10.2844 13.7763 -29.6219 0.174195 -1.02956
lowerback 21.8751 -1.46973 -0.382103
upperback 9.33533 -2.04746 -0.996132
thorax -2.06948 -1.01892 -0.374744
lowerneck -8.55048 -0.528283 -0.2618
upperneck 4.75235 -0.808025 1.93041
head 3.03768 -0.330803 0.631171
rclavicle 6.39217e-015 -4.96962e-015
rhumerus 45.7762 11.4943 -17.627
rradius 53.5572
rwrist 1.62448
rhand -18.3416 -28.1455
rfingers 7.12502
rthumb 7.94069 -57.9763
lclavicle 6.39217e-015 -4.96962e-015
lhumerus 66.6959 -3.15354 11.9259
lradius 32.5565
lwrist -2.38303
lhand -31.1559 -22.807
lfingers 7.12502
lthumb -4.43369 7.1266
rfemur -74.6735 -9.96509 19.2865
rtibia 60.2174
rfoot -190.064 2.88493
rtoes -4.85961
lfemur -44.5553 8.16828 -16.8172
ltibia 45.921
lfoot -165.848 1.3102
ltoes 30.1776
720
root 7.4725 10.3014 13.8603 -29.913 -0.437191 -0.486435
lowerback 21.9362 -1.33746 -0.482487
upperback 9.40979 -1.90343 -1.10629
thorax -2.01891 -0.949074 -0.46817
lowerneck -8.45743 -0.4569 -0.163362
upperneck 4.91549 -0.714091 1.75447
head 3.07273 -0.288619 0.561934
rclavicle 5.39825e-015 -1.17283e-014
rhumerus 44.8163 11.0935 -18.3446
rradius 52.2879
rwrist 1.27183
rhand -18.5678 -28.8246
rfingers 7.12502
rthumb 7.72235 -58.6636
lclavicle 5.39825e-015 -1.17283e-014
lhumerus 65.5388 -2.67944 12.5995
lradius 31.2091
lwrist -2.30308
lhand -30.7556 -21.336
lfingers 7.12502
lthumb -4.04714 8.6053
rfemur -73.8053 -9.95682 19.5178
rtibia 57.8742
rfoot -189.542 2.74604
rtoes -3.67485
lfemur -46.392 8.9874 -16.5309
ltibia 46.4766
lfoot -168.72 1.93104
ltoes 28.8811
721
root 7.48341 10.3086 13.9423 -30.1967 -1.08778 0.072938
lowerback 22.0489 -1.20358 -0.555605
upperback 9.4796 -1.75367 -1.23863
thorax -2.00018 -0.87516 -0.601067
lowerneck -8.33386 -0.390058 -0.0263368
upperneck 5.02365 -0.62839 1.56779
head 3.08324 -0.250588 0.481773
rclavicle -1.64184e-014 -5.36719e-015
rhumerus 43.8189 10.5819 -19.1914
rradius 50.981
rwrist 1.33808
rhand -18.7553 -29.6364
rfingers 7.12502
rthumb 7.54134 -59.4819
lclavicle -1.64184e-014 -5.36719e-015
lhumerus 64.2891 -2.15697 13.2383
lradius 30.07
lwrist -1.96703
lhand -30.7228 -20.1159
lfingers 7.12502
lthumb -4.01544 9.82603
rfemur -72.8888 -9.91841 19.7418
rtibia 55.7193
rfoot -188.893 2.62247
rtoes -2.15711
lfemur -48.3762 9.85749 -16.2457
ltibia 47.4732
lfoot -171.176 2.40108
ltoes 28.1573
722
root 7.49434 10.3064 14.0211 -30.4496 -1.81438 0.574213
lowerback 22.1948 -1.08239 -0.532094
upperback 9.55277 -1.60194 -1.36893
thorax -1.99617 -0.797844 -0.787011
lowerneck -8.21343 -0.323226 0.115998
upperneck 5.06473 -0.543299 1.4008
head 3.07186 -0.212248 0.406914
rclavicle 1.46542e-014 8.34896e-015
rhumerus 42.8171 9.94001 -20.1373
rradius 49.6476
rwrist 1.68323
rhand -18.8745 -30.5409
rfingers 7.12502
rthumb 7.42627 -60.3905
lclavicle 1.46542e-014 8.34896e-015
lhumerus 62.9624 -1.5537 13.8251
lradius 29.089
lwrist -1.40796
lhand -31.0306 -19.1403
lfingers 7.12502
lthumb -4.31267 10.7958
rfemur -71.9408 -9.82624 20.0741
rtibia 53.7508
rfoot -188.159 2.61783
rtoes -0.367524
lfemur -50.5071 10.791 -15.859
ltibia 48.8644
lfoot -172.94 2.95969
ltoes 28.5075
723
root 7.50515 10.2954 14.0979 -30.6837 -2.5406 1.06176
lowerback 22.3597 -0.978842 -0.481624
upperback 9.6438 -1.46845 -1.50902
thorax -1.98209 -0.728725 -0.995076
lowerneck -8.13065 -0.250818 0.227146
upperneck 5.05746 -0.449805 1.27956
head 3.0518 -0.168637 0.352775
rclavicle 1.364e-014 -3.97569e-016
rhumerus 41.8301 9.1637 -21.1387
rradius 48.2981
rwrist 2.13912
rhand -18.9026 -31.4572
rfingers 7.12502
rthumb 7.39921 -61.3078
lclavicle 1.364e-014 -3.97569e-016
lhumerus 61.5908 -0.856962 14.367
lradius 28.1978
lwrist -0.709598
lhand -31.6359 -18.3789
lfingers 7.12502
lthumb -4.89719 11.5445
rfemur -70.96 -9.74823 20.4293
rtibia 51.9488
rfoot -187.425 2.80215
rtoes 1.4018
lfemur -52.7172 11.7391 -15.4861
ltibia 50.5938
lfoot -174.168 3.85439
ltoes 28.3375
724
root 7.51559 10.2752 14.173 -30.9051 -3.20124 1.58425
lowerback 22.5432 -0.888922 -0.478229
upperback 9.74985 -1.36317 -1.66863
thorax -1.95949 -0.674408 -1.19123
lowerneck -8.104 -0.172374 0.292137
upperneck 5.03382 -0.346349 1.20292
head 3.03747 -0.11915 0.321722
rclavicle 4.75685e-015 7.55382e-015
rhumerus 40.8661 8.26505 -22.1645
rradius 46.942
rwrist 2.5454
rhand -18.8443 -32.3391
rfingers 7.12502
rthumb 7.45547 -62.1877
lclavicle 4.75685e-015 7.55382e-015
lhumerus 60.1993 -0.0930275 14.8205
lradius 27.341
lwrist 0.0819731
lhand -32.4678 -17.8015
lfingers 7.12502
lthumb -5.70044 12.1018
rfemur -69.9619 -9.728 20.723
rtibia 50.2863
rfoot -186.801 3.22358
rtoes 2.72918
lfemur -54.9492 12.656 -15.2368
ltibia 52.5988
lfoot -175.075 5.05233
ltoes 27.4303
725
root 7.52495 10.2446 14.245 -31.0981 -3.80252 2.10593
lowerback 22.7519 -0.81357 -0.496333
upperback 9.85654 -1.28187 -1.83267
thorax -1.94767 -0.632399 -1.3746
lowerneck -8.13165 -0.0917221 0.32946
upperneck 5.00853 -0.238172 1.13908
head 3.03324 -0.0672115 0.299953
rclavicle 2.68546e-014 2.78299e-015
rhumerus 39.9201 7.2536 -23.2103
rradius 45.5923
rwrist 2.78459
rhand -18.7226 -33.1545
rfingers 7.12502
rthumb 7.5729 -62.9989
lclavicle 2.68546e-014 2.78299e-015
lhumerus 58.8196 0.765125 15.3388
lradius 26.474
lwrist 0.730738
lhand -33.4027 -17.397
lfingers 7.12502
lthumb -6.60293 12.4801
rfemur -68.9674 -9.74606 20.9986
rtibia 48.7595
rfoot -186.388 3.88208
rtoes 3.55788
lfemur -57.1935 13.5296 -15.0948
ltibia 54.819
lfoot -175.864 6.39516
ltoes 25.8931
726
root 7.53255 10.2025 14.3126 -31.234 -4.38829 2.56331
lowerback 22.9708 -0.755017 -0.473194
upperback 9.9501 -1.21363 -1.97698
thorax -1.95499 -0.596092 -1.55762
lowerneck -8.17972 -0.0123014 0.354441
upperneck 4.966 -0.129687 1.06659
head 3.02713 -0.0157362 0.27755
rclavicle -2.76847e-015 -3.08116e-014
rhumerus 38.9884 6.14066 -24.2647
rradius 44.2571
rwrist 2.78799
rhand -18.5905 -33.8646
rfingers 7.12502
rthumb 7.70043 -63.7044
lclavicle -2.76847e-015 -3.08116e-014
lhumerus 57.4565 1.76312 16.0719
lradius 25.6209
lwrist 1.02854
lhand -34.3244 -17.0998
lfingers 7.12502
lthumb -7.49274 12.7475
rfemur -68.0018 -9.74937 21.3469
rtibia 47.3862
rfoot -186.248 4.72099
rtoes 4.01243
lfemur -59.4785 14.3703 -14.985
ltibia 57.2055
lfoot -176.683 7.70062
ltoes 23.9135
